<svg width="27" height="28" viewBox="0 0 27 28" fill="none" xmlns="http://www.w3.org/2000/svg">
<path d="M14 20.9992V17.4992ZM11.7483 3.28917L3.66332 9.76417C2.75332 10.4875 2.16998 12.0158 2.36832 13.1592L3.91998 22.4458C4.19998 24.1025 5.78665 25.4442 7.46665 25.4442H20.5333C22.2017 25.4442 23.8 24.0908 24.08 22.4458L25.6317 13.1592C25.8183 12.0158 25.235 10.4875 24.3367 9.76417L16.2517 3.30084C15.0033 2.29751 12.985 2.29751 11.7483 3.28917Z" fill="#999999"/>
<path d="M14 20.9992V17.4992M11.7483 3.28917L3.66332 9.76417C2.75332 10.4875 2.16998 12.0158 2.36832 13.1592L3.91998 22.4458C4.19998 24.1025 5.78665 25.4442 7.46665 25.4442H20.5333C22.2017 25.4442 23.8 24.0908 24.08 22.4458L25.6317 13.1592C25.8183 12.0158 25.235 10.4875 24.3367 9.76417L16.2517 3.30084C15.0033 2.29751 12.985 2.29751 11.7483 3.28917Z" stroke="#999999" stroke-width="1.5" stroke-linecap="round" stroke-linejoin="round"/>
<path d="M14 17.5V21" stroke="white" stroke-width="1.5" stroke-linecap="round"/>
</svg>
