<svg width="28" height="28" viewBox="0 0 28 28" fill="none" xmlns="http://www.w3.org/2000/svg">
<path d="M18.6667 4.68945C22.5517 4.89945 24.5 6.33445 24.5 11.6661V18.6661C24.5 23.3328 23.3333 25.6661 17.5 25.6661H10.5C4.66667 25.6661 3.5 23.3328 3.5 18.6661V11.6661C3.5 6.34612 5.44833 4.89945 9.33333 4.68945" fill="#FF9F9F"/>
<path d="M18.6667 4.68945C22.5517 4.89945 24.5 6.33445 24.5 11.6661V18.6661C24.5 23.3328 23.3333 25.6661 17.5 25.6661H10.5C4.66667 25.6661 3.5 23.3328 3.5 18.6661V11.6661C3.5 6.34612 5.44833 4.89945 9.33333 4.68945" stroke="#FF5E5E" stroke-width="1.5" stroke-miterlimit="10" stroke-linecap="round" stroke-linejoin="round"/>
<path d="M9.33337 14.234H17.5ZM9.33337 18.9007H14.4434ZM11.6667 7.00065H16.3334C18.6667 7.00065 18.6667 5.83398 18.6667 4.66732C18.6667 2.33398 17.5 2.33398 16.3334 2.33398H11.6667C10.5 2.33398 9.33337 2.33398 9.33337 4.66732C9.33337 7.00065 10.5 7.00065 11.6667 7.00065Z" fill="#D9D9D9"/>
<path d="M9.33337 14.234H17.5M9.33337 18.9007H14.4434M11.6667 7.00065H16.3334C18.6667 7.00065 18.6667 5.83398 18.6667 4.66732C18.6667 2.33398 17.5 2.33398 16.3334 2.33398H11.6667C10.5 2.33398 9.33337 2.33398 9.33337 4.66732C9.33337 7.00065 10.5 7.00065 11.6667 7.00065Z" stroke="#FF5E5E" stroke-width="1.5" stroke-miterlimit="10" stroke-linecap="round" stroke-linejoin="round"/>
<path d="M17.1667 2.33398H10.8334C10.0049 2.33398 9.33337 3.00556 9.33337 3.83398V5.50065C9.33337 6.32908 10.0049 7.00065 10.8334 7.00065H17.1667C17.9951 7.00065 18.6667 6.32908 18.6667 5.50065V3.83398C18.6667 3.00556 17.9951 2.33398 17.1667 2.33398Z" fill="#FF9F9F" stroke="#FF5E5E" stroke-width="1.5"/>
</svg>
