<svg width="28" height="28" viewBox="0 0 28 28" fill="none" xmlns="http://www.w3.org/2000/svg">
<path d="M14.1867 12.6812C14.07 12.6695 13.93 12.6695 13.8017 12.6812C12.4626 12.6357 11.1938 12.0708 10.2639 11.1062C9.33406 10.1415 8.8162 8.85273 8.82001 7.51287C8.82001 4.65454 11.13 2.33287 14 2.33287C14.6795 2.32062 15.3547 2.44231 15.9872 2.69102C16.6196 2.93972 17.1969 3.31056 17.686 3.78235C18.1752 4.25415 18.5666 4.81767 18.8379 5.44074C19.1093 6.06381 19.2552 6.73422 19.2675 7.41371C19.2798 8.09319 19.1581 8.76843 18.9094 9.40088C18.6607 10.0333 18.2898 10.6106 17.818 11.0997C17.3462 11.5889 16.7827 11.9803 16.1596 12.2516C15.5366 12.523 14.8662 12.6689 14.1867 12.6812ZM8.35334 16.9862C5.53001 18.8762 5.53001 21.9562 8.35334 23.8345C11.5617 25.9812 16.8233 25.9812 20.0317 23.8345C22.855 21.9445 22.855 18.8645 20.0317 16.9862C16.835 14.8512 11.5733 14.8512 8.35334 16.9862Z" fill="#FF5E5E" stroke="#FF5E5E" stroke-width="1.5" stroke-linecap="round" stroke-linejoin="round"/>
</svg>
