<svg width="28" height="28" viewBox="0 0 28 28" fill="none" xmlns="http://www.w3.org/2000/svg">
<path d="M3.51172 13.0898V18.3282C3.51172 23.5665 5.61172 25.6665 10.8501 25.6665H17.1384C22.3767 25.6665 24.4767 23.5665 24.4767 18.3282V13.0898" fill="#FF9F9F"/>
<path d="M3.51172 13.0898V18.3282C3.51172 23.5665 5.61172 25.6665 10.8501 25.6665H17.1384C22.3767 25.6665 24.4767 23.5665 24.4767 18.3282V13.0898" stroke="#FF5E5E" stroke-width="1.5" stroke-linecap="round" stroke-linejoin="round"/>
<path d="M14 14.0007C16.135 14.0007 17.71 12.2623 17.5 10.1273L16.73 2.33398H11.2817L10.5 10.1273C10.29 12.2623 11.865 14.0007 14 14.0007Z" fill="#FF9F9F" stroke="#FF5E5E" stroke-width="1.5" stroke-linecap="round" stroke-linejoin="round"/>
<path d="M21.3617 14.0007C23.7183 14.0007 25.445 12.0873 25.2117 9.74232L24.885 6.53398C24.465 3.50065 23.2983 2.33398 20.2417 2.33398H16.6833L17.5 10.5123C17.6983 12.4373 19.4367 14.0007 21.3617 14.0007ZM6.57999 14.0007C8.50499 14.0007 10.2433 12.4373 10.43 10.5123L10.6867 7.93398L11.2467 2.33398H7.68832C4.63165 2.33398 3.46499 3.50065 3.04498 6.53398L2.72998 9.74232C2.49665 12.0873 4.22332 14.0007 6.57999 14.0007ZM14 19.834C12.0517 19.834 11.0833 20.8023 11.0833 22.7507V25.6673H16.9167V22.7507C16.9167 20.8023 15.9483 19.834 14 19.834Z" fill="#FF9F9F" stroke="#FF5E5E" stroke-width="1.5" stroke-linecap="round" stroke-linejoin="round"/>
</svg>
