<svg width="65" height="65" viewBox="0 0 65 65" fill="none" xmlns="http://www.w3.org/2000/svg">
<path d="M24.3747 27.0833C25.8113 27.0833 27.189 26.5126 28.2048 25.4968C29.2207 24.481 29.7913 23.1033 29.7913 21.6667C29.7913 20.2301 29.2207 18.8523 28.2048 17.8365C27.189 16.8207 25.8113 16.25 24.3747 16.25C22.9381 16.25 21.5603 16.8207 20.5445 17.8365C19.5287 18.8523 18.958 20.2301 18.958 21.6667C18.958 23.1033 19.5287 24.481 20.5445 25.4968C21.5603 26.5126 22.9381 27.0833 24.3747 27.0833Z" stroke="#FF5E5E" stroke-width="2" stroke-linecap="round" stroke-linejoin="round"/>
<path d="M35.2087 5.41699H24.3753C10.8337 5.41699 5.41699 10.8337 5.41699 24.3753V40.6253C5.41699 54.167 10.8337 59.5837 24.3753 59.5837H40.6253C54.167 59.5837 59.5837 54.167 59.5837 40.6253V27.0837" stroke="#FF5E5E" stroke-width="2" stroke-linecap="round" stroke-linejoin="round"/>
<path d="M42.6562 13.5417H57.5521M50.1042 20.9896V6.09375" stroke="#FF5E5E" stroke-width="2" stroke-linecap="round"/>
<path d="M7.23145 51.3229L20.5835 42.3583C22.7231 40.9229 25.8106 41.0854 27.7335 42.7374L28.6273 43.5229C30.7398 45.3374 34.1523 45.3374 36.2648 43.5229L47.5314 33.8541C49.6439 32.0395 53.0564 32.0395 55.1689 33.8541L59.5835 37.6458" stroke="#FF5E5E" stroke-width="2" stroke-linecap="round" stroke-linejoin="round"/>
</svg>
