<svg width="70" height="70" viewBox="0 0 70 70" fill="none" xmlns="http://www.w3.org/2000/svg">
<path d="M65.6887 55.7175L59.9664 49.9888L63.1019 18.8341H33.1579L32.374 12.5561H48.0515V0H54.3225V12.5561H70L65.6887 55.7175ZM62.0829 70L31.0414 38.9238L0 7.84753L4.46808 3.37444L66.5509 65.5269L62.0829 70ZM1.01904 56.5022V50.2242H48.0515V56.5022H1.01904ZM4.15454 69.0583C3.26614 69.0583 2.52199 68.757 1.92206 68.1543C1.32004 67.5537 1.01904 66.8087 1.01904 65.9193V62.7803H48.0515V65.9193C48.0515 66.8087 47.7515 67.5537 47.1516 68.1543C46.5496 68.757 45.8044 69.0583 44.916 69.0583H4.15454ZM26.2598 25.1906V31.4686C25.9985 31.4686 25.7111 31.455 25.3975 31.4278C25.084 31.4027 24.7966 31.3901 24.5353 31.3901C21.452 31.3901 18.5392 31.9133 15.7966 32.9596C13.052 34.006 10.922 35.5755 9.4065 37.6682H38.7234L44.9944 43.9462H1.01904C1.01904 37.6158 3.46264 32.8948 8.34983 29.783C13.2349 26.6691 18.6301 25.1121 24.5353 25.1121C24.7966 25.1121 25.084 25.1247 25.3975 25.1498C25.7111 25.177 25.9985 25.1906 26.2598 25.1906Z" fill="white"/>
</svg>
