<svg width="25" height="18" viewBox="0 0 25 18" fill="none" xmlns="http://www.w3.org/2000/svg">
<path d="M5.20833 3.41699C4.0625 3.41699 3.125 4.35449 3.125 5.50033C3.125 6.64616 4.0625 7.58366 5.20833 7.58366C6.35417 7.58366 7.29167 6.64616 7.29167 5.50033C7.29167 4.35449 6.35417 3.41699 5.20833 3.41699ZM19.7917 3.41699C18.6458 3.41699 17.7083 4.35449 17.7083 5.50033C17.7083 6.64616 18.6458 7.58366 19.7917 7.58366C20.9375 7.58366 21.875 6.64616 21.875 5.50033C21.875 4.35449 20.9375 3.41699 19.7917 3.41699ZM12.5 3.41699C11.3542 3.41699 10.4167 4.35449 10.4167 5.50033C10.4167 6.64616 11.3542 7.58366 12.5 7.58366C13.6458 7.58366 14.5833 6.64616 14.5833 5.50033C14.5833 4.35449 13.6458 3.41699 12.5 3.41699Z" fill="#FF5E5E"/>
</svg>
