<svg width="50" height="50" viewBox="0 0 50 50" fill="none" xmlns="http://www.w3.org/2000/svg">
<circle cx="25.0002" cy="25" r="25" fill="#FF5E5E"/>
<path d="M25.1037 26.4406C24.9423 26.4203 24.779 26.4203 24.6175 26.4406C22.8999 26.3828 21.2719 25.6596 20.0776 24.4237C18.8833 23.1878 18.2161 21.536 18.2171 19.8174C18.2171 16.1513 21.1743 13.1738 24.8606 13.1738C26.6014 13.1708 28.2736 13.852 29.5168 15.0705C30.76 16.289 31.4745 17.9472 31.5064 19.6877C31.5383 21.4282 30.885 23.1115 29.6872 24.3747C28.4895 25.6379 26.8434 26.3799 25.1037 26.4406V26.4406ZM38.5122 39.8087C34.79 43.2298 29.9162 45.1244 24.8606 45.1154C19.5944 45.1154 14.8143 43.1102 11.209 39.8087C11.4115 37.9047 12.6268 36.0413 14.7941 34.583C20.3438 30.8966 29.4179 30.8966 34.9272 34.583C37.0944 36.0413 38.3097 37.9047 38.5122 39.8087V39.8087Z" stroke="white" stroke-width="2" stroke-linecap="round" stroke-linejoin="round"/>
<path d="M24.8606 45.1157C36.0472 45.1157 45.1152 36.0477 45.1152 24.8611C45.1152 13.6744 36.0472 4.60645 24.8606 4.60645C13.674 4.60645 4.60596 13.6744 4.60596 24.8611C4.60596 36.0477 13.674 45.1157 24.8606 45.1157Z" stroke="white" stroke-width="2" stroke-linecap="round" stroke-linejoin="round"/>
</svg>
