<svg width="60" height="60" viewBox="0 0 60 60" fill="none" xmlns="http://www.w3.org/2000/svg">
<path d="M25.625 35.8333H47.5V29.9999H31.4584L25.625 35.8333ZM12.5 35.8333H19.6459L36.8542 18.7708C37.1459 18.4791 37.2917 18.1145 37.2917 17.677C37.2917 17.2395 37.1459 16.8749 36.8542 16.5833L31.75 11.4791C31.4584 11.1874 31.0938 11.0416 30.6563 11.0416C30.2188 11.0416 29.8542 11.1874 29.5625 11.4791L12.5 28.6874V35.8333ZM0.833374 59.1666V6.66659C0.833374 5.06242 1.40504 3.68867 2.54837 2.54534C3.68976 1.40395 5.06254 0.833252 6.66671 0.833252H53.3334C54.9375 0.833252 56.3113 1.40395 57.4546 2.54534C58.596 3.68867 59.1667 5.06242 59.1667 6.66659V41.6666C59.1667 43.2708 58.596 44.6445 57.4546 45.7878C56.3113 46.9292 54.9375 47.4999 53.3334 47.4999H12.5L0.833374 59.1666ZM6.66671 45.0937L10.0938 41.6666H53.3334V6.66659H6.66671V45.0937ZM6.66671 6.66659V45.0937V6.66659Z" fill="white"/>
</svg>
