<svg width="28" height="17" viewBox="0 0 28 17" fill="none" xmlns="http://www.w3.org/2000/svg">
<path d="M14 0C15.083 0 16.1216 0.430207 16.8874 1.19598C17.6531 1.96175 18.0833 3.00037 18.0833 4.08333C18.0833 5.1663 17.6531 6.20491 16.8874 6.97069C16.1216 7.73646 15.083 8.16667 14 8.16667C12.917 8.16667 11.8784 7.73646 11.1126 6.97069C10.3469 6.20491 9.91667 5.1663 9.91667 4.08333C9.91667 3.00037 10.3469 1.96175 11.1126 1.19598C11.8784 0.430207 12.917 0 14 0ZM5.83333 2.91667C6.48667 2.91667 7.09333 3.09167 7.61833 3.40667C7.44333 5.075 7.93333 6.73167 8.93667 8.02667C8.35333 9.14667 7.18667 9.91667 5.83333 9.91667C4.90508 9.91667 4.01484 9.54792 3.35846 8.89154C2.70208 8.23516 2.33333 7.34492 2.33333 6.41667C2.33333 5.48841 2.70208 4.59817 3.35846 3.94179C4.01484 3.28541 4.90508 2.91667 5.83333 2.91667ZM22.1667 2.91667C23.0949 2.91667 23.9852 3.28541 24.6415 3.94179C25.2979 4.59817 25.6667 5.48841 25.6667 6.41667C25.6667 7.34492 25.2979 8.23516 24.6415 8.89154C23.9852 9.54792 23.0949 9.91667 22.1667 9.91667C20.8133 9.91667 19.6467 9.14667 19.0633 8.02667C20.0805 6.71349 20.5527 5.0589 20.3817 3.40667C20.9067 3.09167 21.5133 2.91667 22.1667 2.91667ZM6.41667 14.875C6.41667 12.46 9.81167 10.5 14 10.5C18.1883 10.5 21.5833 12.46 21.5833 14.875V16.9167H6.41667V14.875ZM0 16.9167V15.1667C0 13.545 2.205 12.18 5.19167 11.7833C4.50333 12.5767 4.08333 13.6733 4.08333 14.875V16.9167H0ZM28 16.9167H23.9167V14.875C23.9167 13.6733 23.4967 12.5767 22.8083 11.7833C25.795 12.18 28 13.545 28 15.1667V16.9167Z" fill="#FF5E5E"/>
</svg>
