<svg width="28" height="28" viewBox="0 0 28 28" fill="none" xmlns="http://www.w3.org/2000/svg">
<path d="M5.65536 11.3716L7.98855 11.3976C10.3217 11.4235 11.5013 10.2699 11.5272 7.93668L11.5531 5.60349C11.5791 3.2703 10.4254 2.09074 8.09225 2.06481L5.75906 2.03889C3.42587 2.01296 2.24631 3.16659 2.22039 5.49978L2.19446 7.83297C2.16854 10.1662 3.32217 11.3457 5.65536 11.3716ZM19.6545 11.5272L21.9877 11.5531C24.3209 11.579 25.5004 10.4254 25.5264 8.09223L25.5523 5.75904C25.5782 3.42585 24.4246 2.24629 22.0914 2.22037L19.7582 2.19444C17.425 2.16852 16.2455 3.32215 16.2195 5.65534L16.1936 7.98853C16.1677 10.3217 17.3213 11.5013 19.6545 11.5272ZM19.4989 25.5263L21.8321 25.5523C24.1653 25.5782 25.3449 24.4246 25.3708 22.0914L25.3967 19.7582C25.4227 17.425 24.269 16.2454 21.9358 16.2195L19.6026 16.1936C17.2695 16.1677 16.0899 17.3213 16.064 19.6545L16.038 21.9877C16.0121 24.3209 17.1658 25.5004 19.4989 25.5263ZM5.49981 25.3708L7.833 25.3967C10.1662 25.4226 11.3457 24.269 11.3717 21.9358L11.3976 19.6026C11.4235 17.2694 10.2699 16.0899 7.9367 16.0639L5.60351 16.038C3.27032 16.0121 2.09076 17.1657 2.06484 19.4989L2.03891 21.8321C2.01299 24.1653 3.16662 25.3449 5.49981 25.3708Z" stroke="#999999" stroke-width="3" stroke-miterlimit="10" stroke-linecap="round" stroke-linejoin="round"/>
</svg>
