<svg width="20" height="20" viewBox="0 0 20 20" fill="none" xmlns="http://www.w3.org/2000/svg">
<path d="M9.16699 1.66699H7.50033C3.33366 1.66699 1.66699 3.33366 1.66699 7.50033V12.5003C1.66699 16.667 3.33366 18.3337 7.50033 18.3337H12.5003C16.667 18.3337 18.3337 16.667 18.3337 12.5003V10.8337" stroke="#FF5E5E" stroke-linecap="round" stroke-linejoin="round"/>
<path d="M13.3666 2.51639L6.7999 9.08306C6.5499 9.33306 6.2999 9.82472 6.2499 10.1831L5.89157 12.6914C5.75823 13.5997 6.3999 14.2331 7.30823 14.1081L9.81657 13.7497C10.1666 13.6997 10.6582 13.4497 10.9166 13.1997L17.4832 6.63306C18.6166 5.49972 19.1499 4.18306 17.4832 2.51639C15.8166 0.849722 14.4999 1.38306 13.3666 2.51639Z" stroke="#FF5E5E" stroke-miterlimit="10" stroke-linecap="round" stroke-linejoin="round"/>
<path d="M12.4248 3.45801C12.7011 4.43923 13.2248 5.33306 13.9456 6.05388C14.6664 6.7747 15.5602 7.29835 16.5415 7.57467" stroke="#FF5E5E" stroke-miterlimit="10" stroke-linecap="round" stroke-linejoin="round"/>
</svg>
