<svg width="28" height="28" viewBox="0 0 28 28" fill="none" xmlns="http://www.w3.org/2000/svg">
<path d="M6.18905 11.5787L8.52224 11.6046C10.8554 11.6305 12.035 10.4769 12.0609 8.14371L12.0868 5.81052C12.1128 3.47733 10.9591 2.29777 8.62594 2.27184L6.29275 2.24592C3.95956 2.21999 2.78001 3.37363 2.75408 5.70682L2.72816 8.04C2.70223 10.3732 3.85586 11.5528 6.18905 11.5787ZM20.1882 11.7342L22.5214 11.7602C24.8546 11.7861 26.0341 10.6324 26.06 8.29926L26.086 5.96607C26.1119 3.63288 24.9583 2.45332 22.6251 2.4274L20.2919 2.40147C17.9587 2.37555 16.7791 3.52918 16.7532 5.86237L16.7273 8.19556C16.7014 10.5287 17.855 11.7083 20.1882 11.7342ZM20.0326 25.7334L22.3658 25.7593C24.699 25.7852 25.8786 24.6316 25.9045 22.2984L25.9304 19.9652C25.9563 17.632 24.8027 16.4525 22.4695 16.4265L20.1363 16.4006C17.8031 16.3747 16.6236 17.5283 16.5977 19.8615L16.5717 22.1947C16.5458 24.5279 17.6994 25.7074 20.0326 25.7334ZM6.0335 25.5778L8.36669 25.6037C10.6999 25.6297 11.8794 24.476 11.9054 22.1428L11.9313 19.8097C11.9572 17.4765 10.8036 16.2969 8.47039 16.271L6.1372 16.2451C3.80401 16.2191 2.62445 17.3728 2.59853 19.706L2.5726 22.0391C2.54668 24.3723 3.70031 25.5519 6.0335 25.5778Z" fill="#D9D9D9" stroke="#999999" stroke-width="1.5" stroke-miterlimit="10" stroke-linecap="round" stroke-linejoin="round"/>
</svg>
