<svg width="28" height="28" viewBox="0 0 28 28" fill="none" xmlns="http://www.w3.org/2000/svg">
<path d="M8.75004 8.94891V7.81724C8.75004 5.19224 10.8617 2.61391 13.4867 2.36891C14.2161 2.29725 14.9524 2.37909 15.6482 2.60917C16.344 2.83925 16.984 3.21246 17.5269 3.70479C18.0698 4.19713 18.5035 4.79767 18.8003 5.46777C19.0971 6.13788 19.2503 6.86269 19.25 7.59557V9.20557M10.5 25.6672H17.5C22.19 25.6672 23.03 23.7889 23.275 21.5022L24.15 14.5022C24.465 11.6556 23.6484 9.33391 18.6667 9.33391H9.33338C4.35171 9.33391 3.53504 11.6556 3.85004 14.5022L4.72504 21.5022C4.97004 23.7889 5.81004 25.6672 10.5 25.6672Z" stroke="#FF5E5E" stroke-miterlimit="10" stroke-linecap="round" stroke-linejoin="round"/>
<path d="M18.0776 14H18.0892M9.91089 14H9.92022" stroke="#FF5E5E" stroke-width="2" stroke-linecap="round" stroke-linejoin="round"/>
</svg>
